<svg xmlns="http://www.w3.org/2000/svg" xmlns:xlink="http://www.w3.org/1999/xlink" width="110.25" height="109.899" viewBox="0 0 110.25 109.899">
  <defs>
    <clipPath id="clip-path">
      <path id="Path_60" data-name="Path 60" d="M132.375,189.281h110.25v53.25H132.375Zm0,0"/>
    </clipPath>
    <clipPath id="clip-path-2">
      <path id="Path_81" data-name="Path 81" d="M166.563,155.723h42v53.906h-42Zm0,0"/>
    </clipPath>
    <clipPath id="clip-path-3">
      <path id="Path_83" data-name="Path 83" d="M143.25,207.863h19.473v1.281H143.25Zm0,0"/>
    </clipPath>
    <clipPath id="clip-path-4">
      <path id="Path_85" data-name="Path 85" d="M145,206h17.723v2H145Zm0,0"/>
    </clipPath>
    <clipPath id="clip-path-5">
      <path id="Path_87" data-name="Path 87" d="M147,204h15.723v3H147Zm0,0"/>
    </clipPath>
    <clipPath id="clip-path-6">
      <path id="Path_89" data-name="Path 89" d="M150,202h12.723v3H150Zm0,0"/>
    </clipPath>
    <clipPath id="clip-path-7">
      <path id="Path_91" data-name="Path 91" d="M154,199h8.723v4H154Zm0,0"/>
    </clipPath>
    <clipPath id="clip-path-8">
      <path id="Path_93" data-name="Path 93" d="M158,197h4.723v3H158Zm0,0"/>
    </clipPath>
    <clipPath id="clip-path-9">
      <path id="Path_95" data-name="Path 95" d="M212,207.863h19.5v1.281H212Zm0,0"/>
    </clipPath>
    <clipPath id="clip-path-10">
      <path id="Path_97" data-name="Path 97" d="M212,206h18v2H212Zm0,0"/>
    </clipPath>
    <clipPath id="clip-path-11">
      <path id="Path_99" data-name="Path 99" d="M212,204h16v3H212Zm0,0"/>
    </clipPath>
    <clipPath id="clip-path-12">
      <path id="Path_101" data-name="Path 101" d="M212,202h13v3H212Zm0,0"/>
    </clipPath>
    <clipPath id="clip-path-13">
      <path id="Path_103" data-name="Path 103" d="M212,199h9v4h-9Zm0,0"/>
    </clipPath>
    <clipPath id="clip-path-14">
      <path id="Path_105" data-name="Path 105" d="M212,197h5v3h-5Zm0,0"/>
    </clipPath>
  </defs>
  <g id="Copy_of_m_Business_Card_Logo_" data-name="Copy of m (Business Card) (Logo)" transform="translate(-132.375 -132.632)">
    <g id="Group_84" data-name="Group 84" clip-path="url(#clip-path)">
      <path id="Path_59" data-name="Path 59" d="M187.5,242.625A55.125,55.125,0,1,1,242.625,187.5,55.219,55.219,0,0,1,187.5,242.625Zm0-106.848A51.723,51.723,0,1,0,239.223,187.5,51.7,51.7,0,0,0,187.5,135.777Zm0,0" fill="#fff"/>
    </g>
    <g id="Group_87" data-name="Group 87">
      <g id="Group_86" data-name="Group 86" transform="translate(142.12 182.07)">
        <g id="Group_85" data-name="Group 85">
          <path id="Path_61" data-name="Path 61" d="M2.641-10.7l-.484,2-5.828-1.422L.719-6.75.359-5.281l-5.453.922L.719-2.922.219-.891l-8.953-2.2.609-2.484L-2.187-6.7l-4.734-3.719.609-2.484Zm0,0" fill="#fff"/>
        </g>
      </g>
    </g>
    <g id="Group_90" data-name="Group 90">
      <g id="Group_89" data-name="Group 89" transform="translate(145.919 169.101)">
        <g id="Group_88" data-name="Group 88">
          <path id="Path_62" data-name="Path 62" d="M1.438-2.937.406-.828-7.859-4.875l1.031-2.109Zm0,0" fill="#fff"/>
        </g>
      </g>
    </g>
    <g id="Group_93" data-name="Group 93">
      <g id="Group_92" data-name="Group 92" transform="translate(148.46 163.755)">
        <g id="Group_91" data-name="Group 91">
          <path id="Path_63" data-name="Path 63" d="M-4.328-9.734a5.218,5.218,0,0,1,1.547-1.359,5.178,5.178,0,0,1,1.906-.687l.469,2.047a3.1,3.1,0,0,0-1.312.328,2.713,2.713,0,0,0-1.016.828A2.386,2.386,0,0,0-3.2-6.656a2.614,2.614,0,0,0,1.078,1.7,2.742,2.742,0,0,0,1.984.578,2.415,2.415,0,0,0,1.719-1,2.941,2.941,0,0,0,.484-1.141,3.386,3.386,0,0,0,.031-1.359l1.984-.25A6.084,6.084,0,0,1,4-5.969a4.814,4.814,0,0,1-.828,1.891A4.7,4.7,0,0,1,.016-2.109a4.566,4.566,0,0,1-3.547-.906A4.375,4.375,0,0,1-5.344-6.109,4.844,4.844,0,0,1-4.328-9.734Zm0,0" fill="#fff"/>
        </g>
      </g>
    </g>
    <g id="Group_96" data-name="Group 96">
      <g id="Group_95" data-name="Group 95" transform="translate(154.832 155.356)">
        <g id="Group_94" data-name="Group 94">
          <path id="Path_64" data-name="Path 64" d="M7.281-5.953,5.469-4.469,3.2-7.234.266-4.828,2.531-2.062.719-.578-5.109-7.7-3.3-9.187-.891-6.25,2.047-8.656-.359-11.594l1.813-1.484Zm0,0" fill="#fff"/>
        </g>
      </g>
    </g>
    <g id="Group_99" data-name="Group 99">
      <g id="Group_98" data-name="Group 98" transform="translate(164.379 148.136)">
        <g id="Group_97" data-name="Group 97">
          <path id="Path_65" data-name="Path 65" d="M2.875-1.531.813-.437-3.516-8.562l2.063-1.094Zm0,0" fill="#fff"/>
        </g>
      </g>
    </g>
    <g id="Group_102" data-name="Group 102">
      <g id="Group_101" data-name="Group 101" transform="translate(169.531 145.273)">
        <g id="Group_100" data-name="Group 100">
          <path id="Path_66" data-name="Path 66" d="M5.344-6.531l1.922-.594L8.313-3.7A6.461,6.461,0,0,1,6.844-2.344a6.725,6.725,0,0,1-1.812.906,4.872,4.872,0,0,1-3.766-.25,4.53,4.53,0,0,1-2.328-2.8A4.395,4.395,0,0,1-.656-8.094a5.159,5.159,0,0,1,3.078-2.375A5.907,5.907,0,0,1,4.469-10.7a5.026,5.026,0,0,1,1.938.453L5.625-8.344A3.689,3.689,0,0,0,4.3-8.687a3.453,3.453,0,0,0-1.312.125,2.588,2.588,0,0,0-1.594,1.3,2.692,2.692,0,0,0-.172,2.078A2.673,2.673,0,0,0,2.531-3.547a2.648,2.648,0,0,0,2.094.172A3.843,3.843,0,0,0,6.047-4.25Zm0,0" fill="#fff"/>
        </g>
      </g>
    </g>
    <g id="Group_105" data-name="Group 105">
      <g id="Group_104" data-name="Group 104" transform="translate(180.268 142.132)">
        <g id="Group_103" data-name="Group 103">
          <path id="Path_67" data-name="Path 67" d="M6.938-2.031l-4,.2L2.344-.109-.062,0,3.453-9.375,5.859-9.5l4.313,9-2.5.125Zm-.766-1.75L4.7-7.109,3.516-3.641Zm0,0" fill="#fff"/>
        </g>
      </g>
    </g>
    <g id="Group_108" data-name="Group 108">
      <g id="Group_107" data-name="Group 107" transform="translate(191.778 141.738)">
        <g id="Group_106" data-name="Group 106">
          <path id="Path_68" data-name="Path 68" d="M9.2,1.938,7.188,1.516,4.2-4.891,3.047.641.906.188l1.891-9,2.016.422L7.8-1.953,8.969-7.516l2.125.453Zm0,0" fill="#fff"/>
        </g>
      </g>
    </g>
    <g id="Group_111" data-name="Group 111">
      <g id="Group_110" data-name="Group 110" transform="translate(207.911 146.242)">
        <g id="Group_109" data-name="Group 109">
          <path id="Path_69" data-name="Path 69" d="M9.141,6.172l-1.7-1.156L10.766.063,6.094,3l-1.25-.844,1-5.422L2.5,1.688.766.516,5.922-7.125,8.047-5.687,7.047.25l5.125-3.156L14.3-1.469Zm0,0" fill="#fff"/>
        </g>
      </g>
    </g>
    <g id="Group_114" data-name="Group 114">
      <g id="Group_113" data-name="Group 113" transform="translate(218.736 153.919)">
        <g id="Group_112" data-name="Group 112">
          <path id="Path_70" data-name="Path 70" d="M5.844,4.266,3.234,1.2l-1.719.578L-.047-.047,9.547-3l1.563,1.844-4.5,8.922L4.984,5.859ZM6.75,2.578,8.5-.625,5.031.563Zm0,0" fill="#fff"/>
        </g>
      </g>
    </g>
    <g id="Group_117" data-name="Group 117">
      <g id="Group_116" data-name="Group 116" transform="translate(226.065 162.813)">
        <g id="Group_115" data-name="Group 115">
          <path id="Path_71" data-name="Path 71" d="M8.688-3.187,10.406.375A4.886,4.886,0,0,1,10.8,4.094,4.373,4.373,0,0,1,8.391,6.781a4.324,4.324,0,0,1-3.578.188A5.037,5.037,0,0,1,2.094,4.3L.406.828ZM8.016-.266,3.094,2.125l.734,1.484A2.309,2.309,0,0,0,5.281,4.875a2.754,2.754,0,0,0,2.078-.219A2.737,2.737,0,0,0,8.813,3.125,2.42,2.42,0,0,0,8.7,1.141Zm0,0" fill="#fff"/>
        </g>
      </g>
    </g>
    <g id="Group_120" data-name="Group 120">
      <g id="Group_119" data-name="Group 119" transform="translate(230.877 173.295)">
        <g id="Group_118" data-name="Group 118">
          <path id="Path_72" data-name="Path 72" d="M8.906,6.391,7.891,1.641l-1.8.391.922,4.281-1.8.391L4.3,2.422,2.484,2.8,3.531,7.688l-1.8.391L.188.906l9-1.922L10.7,6.016Zm0,0" fill="#fff"/>
        </g>
      </g>
    </g>
    <path id="Path_73" data-name="Path 73" d="M200.055,192.133a1.282,1.282,0,0,0-.8.27,1.31,1.31,0,1,0,.8-.27Zm0,1.75a.439.439,0,1,1,0-.879.439.439,0,0,1,0,.879" fill="#ffde59"/>
    <path id="Path_74" data-name="Path 74" d="M199.406,180.512V174.9l-.594-.367v6.191l.594-.2v-.012" fill="#ffde59"/>
    <path id="Path_75" data-name="Path 75" d="M197.234,192.035a1.313,1.313,0,1,0,1.313,1.313A1.31,1.31,0,0,0,197.234,192.035Zm0,1.75a.439.439,0,1,1,.441-.437.437.437,0,0,1-.441.438" fill="#ffde59"/>
    <path id="Path_76" data-name="Path 76" d="M198.23,178.035v-3.867l-10.223-.691-.23-.016h-.414l-.246.016-10.227.691,0,.023v3.844a.99.99,0,0,0,1.043.988l8.434-.469a1.049,1.049,0,0,0,.992-1.047v-3.816h.4v3.816a1.049,1.049,0,0,0,.988,1.047l8.438.469a.99.99,0,0,0,1.043-.988" fill="#ffde59"/>
    <path id="Path_77" data-name="Path 77" d="M179.2,193.348a1.311,1.311,0,1,0-1.309,1.313A1.31,1.31,0,0,0,179.2,193.348Zm-1.75,0a.439.439,0,1,1,.441.438.441.441,0,0,1-.441-.437" fill="#ffde59"/>
    <path id="Path_78" data-name="Path 78" d="M175.715,180.523l.6.2v-6.191l-.6.367v5.625" fill="#ffde59"/>
    <path id="Path_79" data-name="Path 79" d="M175.867,192.4a1.282,1.282,0,0,0-.8-.27,1.306,1.306,0,1,0,.8.27Zm-.8,1.48a.439.439,0,1,1,0-.879.439.439,0,0,1,0,.879" fill="#ffde59"/>
    <g id="Group_121" data-name="Group 121" clip-path="url(#clip-path-2)">
      <path id="Path_80" data-name="Path 80" d="M208.063,199.566h-.754c0-.234,0-.43-.016-.578a2.428,2.428,0,0,0,.355-.078.982.982,0,0,0,.23-.105c.7-.465.367-6.707-.793-7.539a3.387,3.387,0,0,0-1.012-.422l.035-.27a.871.871,0,1,0-.957-.867v-8.148a.418.418,0,0,0-.418-.418h-.5v-.6c-.008-4.473-.039-20.637,0-22.266.031-1.242-.121-2.141-.6-2.441a.729.729,0,0,0-.371-.113h0c-.039,0-.078,0-.121,0a1.769,1.769,0,0,0-.551.16,2.8,2.8,0,0,0-.523.309,2.685,2.685,0,0,0-1.016,1.98V173.9h-.98v-1.09a.75.75,0,0,0-.172-.477l-.527-.629a2.077,2.077,0,0,0-1.441-.746c-.316-.023-.711-.051-1.164-.082a.748.748,0,1,0-.441-.031c-.191-.012-.395-.023-.605-.039-.184-.012-.375-.023-.57-.031-.168-.012-.344-.02-.52-.031a.747.747,0,1,0-1.039-.687.738.738,0,0,0,.383.652c-.5-.023-1.027-.051-1.57-.07a.744.744,0,1,0-.7-.027c-.52-.02-1.051-.035-1.59-.047a.748.748,0,0,0-.289-1.437.732.732,0,0,0-.469.168.74.74,0,0,0-.277.582.656.656,0,0,0,.027.2.728.728,0,0,0,.4.477c-.184,0-.367,0-.551-.008-.461,0-.926-.008-1.387-.008a.742.742,0,1,0-.008,0c-.461,0-.922,0-1.383.008-.18,0-.363,0-.547.008a.739.739,0,0,0,.4-.477.656.656,0,0,0,.027-.2.752.752,0,0,0-.277-.582.732.732,0,0,0-.469-.168.749.749,0,0,0-.293,1.438c-.539.012-1.07.027-1.586.047a.746.746,0,1,0-.707.027c-.543.02-1.066.047-1.566.07a.745.745,0,1,0-.656.035l-.633.035c-.156.012-.309.02-.457.027-.211.016-.414.027-.605.039a.745.745,0,1,0-.441.031c-.457.031-.848.059-1.164.082a2.093,2.093,0,0,0-1.445.746l-.523.629a.729.729,0,0,0-.172.477v1.09h-.98V158.176a2.685,2.685,0,0,0-.992-1.961,2.6,2.6,0,0,0-.551-.328,1.721,1.721,0,0,0-.547-.16c-.043,0-.082,0-.121,0h0a.729.729,0,0,0-.371.113c-.48.3-.629,1.2-.6,2.441.043,1.629.012,17.789,0,22.266,0,.059,0,.113,0,.168v.43h-.5a.416.416,0,0,0-.418.418v9.078c-.2.035-.387.074-.566.117l-.027-.223a.867.867,0,1,0-.363.043l.035.27a3.387,3.387,0,0,0-1.012.422c-1.16.832-1.492,7.074-.8,7.539a1,1,0,0,0,.258.109,2.109,2.109,0,0,0,.332.074c-.012.148-.02.344-.016.578h-.754a.5.5,0,0,0-.5.5v9.066a.5.5,0,0,0,.5.5h41a.5.5,0,0,0,.5-.5v-9.066A.5.5,0,0,0,208.063,199.566Zm-2.039-10.547a.686.686,0,0,1,.109,1.363.5.5,0,0,1-.109.008.7.7,0,0,1-.254-.047.687.687,0,0,1,.254-1.324Zm-.871,1.094v-.4a.869.869,0,0,0,.594.816l-.027.223c-.18-.043-.371-.082-.566-.117Zm.977,1.32c1.578.633,1.43,5.578,1.371,6.727-.344-1.734-1.09-5.07-1.8-5.848-.984-1.062-5.18-1.176-5.18-1.176A10.755,10.755,0,0,1,206.129,191.434Zm-1.648-9.887a1.362,1.362,0,0,1,.254.074v8.434c-.137-.016-.3-.035-.492-.055Zm-1.34-25.367a.767.767,0,0,1,.5.543v23.906l-.5-.066Zm.727,25.285c.145.012.266.023.375.039l-.223,3.738-.285,4.711a9.636,9.636,0,0,0-3.559.234v-4.219h.77a.082.082,0,0,1-.016-.023.318.318,0,0,0,.121.023h-.105a1.548,1.548,0,0,0,2.863-.742v-.078a1.55,1.55,0,0,0-2.8-.922h.039a.16.16,0,0,0-.043,0l0,0h-.836v-1.293a10.638,10.638,0,0,1,1.863-.98,6.8,6.8,0,0,0-1.863.492v-.5a.3.3,0,0,1,.035-.07A9.656,9.656,0,0,1,203.867,181.465Zm-6.477-.34a2.648,2.648,0,0,0-1.152-.816,3.515,3.515,0,0,0-.629-.164,44.667,44.667,0,0,0-6.93-.543c-.09-.656-1.117-.641-1.117-.641s-1.027-.016-1.117.641a44.667,44.667,0,0,0-6.93.543,3.1,3.1,0,0,0-.625.164,2.7,2.7,0,0,0-1.16.816c-.027.031-.055.066-.082.1a3.233,3.233,0,0,0-.207.324,3.614,3.614,0,0,0-.414,1.383,2.618,2.618,0,0,0-.016.371v.922l-.473-5.656v2.941l-1.031-.355c0-.09,0-.191,0-.3v-.324c-.008-2.07-.02-6.426,0-6.437l.965-.4,10.469-.758.422-.027h.4l.422.027,10.465.758.969.4c.023.012.012,4.348,0,6.422v.645l-1.031.355V178.6l-.473,5.625V183.3a2.625,2.625,0,0,0-.016-.371,3.633,3.633,0,0,0-.414-1.383c-.043-.07-.086-.145-.133-.215A2.138,2.138,0,0,0,197.391,181.125Zm.008.488-2.906.637h0a3.161,3.161,0,0,0-.449-.914,2.411,2.411,0,0,0-.332-.387l3.3.156a1.866,1.866,0,0,1,.3.355A1.423,1.423,0,0,1,197.4,181.613Zm-9.836-.672c.7,0,1.27.293,1.27.656s-.566.652-1.27.652-1.273-.293-1.273-.652S186.859,180.941,187.563,180.941Zm-.988-1.445c0-.164.441-.3.988-.3s.988.137.988.3a.14.14,0,0,1-.062.105,1.766,1.766,0,0,1-.926.191,1.793,1.793,0,0,1-.93-.191A.147.147,0,0,1,186.574,179.5Zm-5.16,1.453a2.884,2.884,0,0,0-.332.387,3.373,3.373,0,0,0-.449.914l-2.91-.637q.07-.123.141-.223a1.849,1.849,0,0,1,.254-.285Zm-3.953,3.613h.441a2.1,2.1,0,0,1,.055.348h-4.383a1.165,1.165,0,0,1,.1-.348Zm20.652,0h3.34a1.165,1.165,0,0,1,.1.348h-4.383a2.117,2.117,0,0,1,.051-.348Zm3.973-.594a1.181,1.181,0,0,1,1.3,1.273h-.012C203.363,184.387,202.086,183.969,202.086,183.969Zm-2.281-9.437.148-.23a.589.589,0,0,0,.059-.109h1.039v6.949h-1.016a.306.306,0,0,0-.086.008l-.145-.355Zm-3.715-4.387a.5.5,0,1,1,.5.5A.5.5,0,0,1,196.09,170.145Zm-2.258-.09a.5.5,0,1,1,.5.5A.505.505,0,0,1,193.832,170.055Zm-2.258-.09a.5.5,0,1,1,.5.5A.505.505,0,0,1,191.574,169.965Zm-2.258-.09a.5.5,0,1,1,.5.5A.5.5,0,0,1,189.316,169.875Zm-2.258-.094a.5.5,0,1,1,.5.5A.505.505,0,0,1,187.059,169.781Zm-2.258.094a.5.5,0,1,1,.5.5A.5.5,0,0,1,184.8,169.875Zm-2.258.09a.5.5,0,1,1,.5.5A.505.505,0,0,1,182.543,169.965Zm-2.258.09a.5.5,0,1,1,.5.5A.505.505,0,0,1,180.285,170.055Zm-2.258.09a.5.5,0,1,1,.5.5A.5.5,0,0,1,178.027,170.145Zm-1.559,1.559c.414-.445,2.078-.629,3.41-.7.91-.051,1.664-.051,1.754-.051h.008l4.734.223,1.188.055,1.184-.055,4.738-.223h.008c.082,0,.781,0,1.645.043,1.348.07,3.094.25,3.52.711a3.212,3.212,0,0,1,1.117,2.3.467.467,0,0,0-.242-.262l-.883-.535a1.651,1.651,0,0,0-.535-1.2c-1.031-.8-7.465-.207-9.637.02-.449.047-.715.078-.715.078h-.4s-.266-.031-.715-.078c-2.172-.227-8.609-.824-9.641-.02a1.645,1.645,0,0,0-.531,1.2l-.887.539a.481.481,0,0,0-.242.262A3.232,3.232,0,0,1,176.469,171.7Zm-2.395,2.488h1.039a.589.589,0,0,0,.059.109l.145.23v6.262l-.141.355a.306.306,0,0,0-.086-.008h-1.016Zm-2.586-17.469a.767.767,0,0,1,.5-.543v24.387l-.5.066Zm-.23,24.742a9.628,9.628,0,0,1,3.652.406.308.308,0,0,1,.059.18v.4a6.858,6.858,0,0,0-1.887-.5,10.406,10.406,0,0,1,1.887,1v1.273h-.855v0a.12.12,0,0,0-.039,0h.039a1.553,1.553,0,0,0-2.8.922.5.5,0,0,0,0,.078,1.548,1.548,0,0,0,2.863.742h-.105a.318.318,0,0,0,.121-.023.082.082,0,0,0-.016.023h.789v4.219a9.685,9.685,0,0,0-3.582-.234l-.281-4.711-.223-3.738C170.988,181.488,171.113,181.477,171.258,181.465Zm1.781,2.5s-1.277.418-1.293,1.273h-.012A1.181,1.181,0,0,1,173.039,183.969Zm-2.648-2.348a1.362,1.362,0,0,1,.254-.074l.238,8.457c-.187.02-.355.039-.492.055Zm-1.4,8.762a.686.686,0,1,1,.363-.039.662.662,0,0,1-.25.047A.534.534,0,0,1,168.988,190.383Zm-1.344,7.777c-.059-1.148-.211-6.094,1.371-6.727a10.753,10.753,0,0,1,5.613-.3s-4.2.113-5.176,1.176C168.734,193.09,167.992,196.426,167.645,198.16Zm.973,2.191a.756.756,0,0,0-.7.672l-.512,4.926c-.031.02-.062.043-.094.063v-5.367a.76.76,0,0,1,.34-.629h5.316l.043.063Zm6.453-5.281a1.627,1.627,0,0,1,0-3.254l.727-.027.742-.023.473-.016.879-.031a1.606,1.606,0,0,1,.969.324h0a1.627,1.627,0,0,1-.973,2.93l-2.383.082Zm5.2,3.922-2.949-.414-.293-2.973c1.242-.105,2.613-.434,2.719-1.332a2.921,2.921,0,0,0,.016-.605.12.12,0,0,0,0-.039c-.117-2.262-2.73-2.328-2.73-2.328h-.016v-4.594c1.074.039,1.316-.859,1.316-1.559a1.078,1.078,0,0,0-.051-.332.91.91,0,0,0-.516-.727l0,0c-.023-.039-.77-1.156.434-1.043l2.293.215.152,15.785Zm3.133-18.477a5.7,5.7,0,0,0-2.562,3.316A3.21,3.21,0,0,1,183.4,180.516Zm8.781,18.355h-9.242l-.023-.473h9.289Zm.047-.945h-9.34l-.023-.473h9.391Zm.051-.945H182.84l-.023-.477h9.492Zm.051-.949h-9.543l-.023-.473h9.594Zm.051-.945h-9.641l-.027-.473h9.7Zm.051-.945h-9.742l-.027-.473h9.8Zm.051-.949h-9.844l-.027-.473h9.9Zm.051-.945H182.59l-.027-.473h10Zm.051-.945H182.539l-.023-.473h10.094Zm.051-.945H182.488l-.023-.473h10.2Zm.051-.949h-10.25l-.023-.473h10.3Zm.047-.945H182.387l-.023-.473h10.4Zm.051-.945H182.336l-.023-.473h10.5Zm.051-.945H182.285l-.023-.477h10.6Zm.051-.949H182.238l-.027-.473h10.7Zm.051-.945h-10.75l-.027-.473h10.8Zm-1.215-4.16a3.2,3.2,0,0,1,2.559,3.316A5.683,5.683,0,0,0,191.723,180.516Zm6.375,15.09-.293,2.977-3.316.465.152-15.789h.02l2.355-.223h.008c1.074-.047.367,1.012.34,1.051v0a.9.9,0,0,0-.516.727l.02.008a1.027,1.027,0,0,0-.051.324c0,.691.238,1.586,1.3,1.563v4.59H198.1s-2.641.07-2.734,2.367h.02a3.58,3.58,0,0,0,.016.605C195.508,195.168,196.859,195.5,198.1,195.605Zm1.957-.535-.437-.016-2.383-.082a1.627,1.627,0,0,1-1.051-2.867h0a1.6,1.6,0,0,1,1.047-.387l.879.031.473.016.742.023.727.027a1.627,1.627,0,0,1,0,3.254Zm7.762,10.941c-.031-.02-.062-.043-.094-.062l-.512-4.926a.756.756,0,0,0-.7-.672l-4.391-.273.125-.184h4.82a.754.754,0,0,1,.754.75v5.367" fill="#ffde59"/>
    </g>
    <g id="Group_122" data-name="Group 122" clip-path="url(#clip-path-3)">
      <path id="Path_82" data-name="Path 82" d="M180.859,207.871a8.12,8.12,0,0,0,2.09,1.273q-19.887-.252-39.7-.574,18.768-.322,37.609-.7" fill="#fff"/>
    </g>
    <g id="Group_123" data-name="Group 123" clip-path="url(#clip-path-4)">
      <path id="Path_84" data-name="Path 84" d="M179.363,206.16a7.5,7.5,0,0,0,1.492,1.707q-17.93-.375-35.789-.809,17.109-.428,34.3-.9" fill="#fff"/>
    </g>
    <g id="Group_124" data-name="Group 124" clip-path="url(#clip-path-5)">
      <path id="Path_86" data-name="Path 86" d="M178.465,204.164a7.626,7.626,0,0,0,.9,2q-15.979-.469-31.879-.973,15.451-.5,30.98-1.023" fill="#fff"/>
    </g>
    <g id="Group_125" data-name="Group 125" clip-path="url(#clip-path-6)">
      <path id="Path_88" data-name="Path 88" d="M178.168,202.02a7.78,7.78,0,0,0,.3,2.141q-14.021-.521-27.969-1.059,13.8-.539,27.672-1.082" fill="#fff"/>
    </g>
    <g id="Group_126" data-name="Group 126" clip-path="url(#clip-path-7)">
      <path id="Path_90" data-name="Path 90" d="M178.465,199.879a7.8,7.8,0,0,0-.3,2.141q-12.07-.539-24.059-1.078,12.141-.539,24.355-1.062" fill="#fff"/>
    </g>
    <g id="Group_127" data-name="Group 127" clip-path="url(#clip-path-8)">
      <path id="Path_92" data-name="Path 92" d="M179.363,197.883a7.569,7.569,0,0,0-.9,2q-10.107-.527-20.145-1.027,10.482-.5,21.043-.969" fill="#fff"/>
    </g>
    <g id="Group_128" data-name="Group 128" clip-path="url(#clip-path-9)">
      <path id="Path_94" data-name="Path 94" d="M194.141,207.871a8.12,8.12,0,0,1-2.09,1.273q19.887-.252,39.7-.574-18.768-.322-37.609-.7" fill="#fff"/>
    </g>
    <g id="Group_129" data-name="Group 129" clip-path="url(#clip-path-10)">
      <path id="Path_96" data-name="Path 96" d="M195.637,206.16a7.521,7.521,0,0,1-1.5,1.707q17.936-.375,35.793-.809-17.115-.428-34.3-.9" fill="#fff"/>
    </g>
    <g id="Group_130" data-name="Group 130" clip-path="url(#clip-path-11)">
      <path id="Path_98" data-name="Path 98" d="M196.531,204.164a7.614,7.614,0,0,1-.895,2q15.979-.469,31.879-.973-15.451-.5-30.984-1.023" fill="#fff"/>
    </g>
    <g id="Group_131" data-name="Group 131" clip-path="url(#clip-path-12)">
      <path id="Path_100" data-name="Path 100" d="M196.832,202.02a7.784,7.784,0,0,1-.3,2.141q14.027-.521,27.973-1.059-13.8-.539-27.672-1.082" fill="#fff"/>
    </g>
    <g id="Group_132" data-name="Group 132" clip-path="url(#clip-path-13)">
      <path id="Path_102" data-name="Path 102" d="M196.531,199.879a7.8,7.8,0,0,1,.3,2.141q12.064-.539,24.059-1.078-12.141-.539-24.359-1.062" fill="#fff"/>
    </g>
    <g id="Group_133" data-name="Group 133" clip-path="url(#clip-path-14)">
      <path id="Path_104" data-name="Path 104" d="M195.637,197.883a7.557,7.557,0,0,1,.895,2q10.113-.527,20.148-1.027-10.482-.5-21.043-.969" fill="#fff"/>
    </g>
    <g id="Group_136" data-name="Group 136">
      <g id="Group_135" data-name="Group 135" transform="translate(164.158 221.381)">
        <g id="Group_134" data-name="Group 134">
          <path id="Path_106" data-name="Path 106" d="M3.266-3.391H1.984V0H1.313V-3.391H.047V-4H3.266Zm0,0" fill="#fff"/>
        </g>
      </g>
    </g>
    <g id="Group_139" data-name="Group 139">
      <g id="Group_138" data-name="Group 138" transform="translate(167.894 221.381)">
        <g id="Group_137" data-name="Group 137">
          <path id="Path_107" data-name="Path 107" d="M3.063,0,2.328-1.219a.585.585,0,0,1-.172.016H1.2V0H.531V-4H2.156a1.789,1.789,0,0,1,1.188.359,1.248,1.248,0,0,1,.422,1,1.44,1.44,0,0,1-.219.813,1.294,1.294,0,0,1-.609.484L3.828,0ZM1.2-1.812h.953c.645,0,.969-.27.969-.812,0-.508-.324-.766-.969-.766H1.2Zm0,0" fill="#fff"/>
        </g>
      </g>
    </g>
    <g id="Group_142" data-name="Group 142">
      <g id="Group_141" data-name="Group 141" transform="translate(172.453 221.381)">
        <g id="Group_140" data-name="Group 140">
          <path id="Path_108" data-name="Path 108" d="M3.922-4v2.344A1.631,1.631,0,0,1,3.453-.422,1.709,1.709,0,0,1,2.188.031,1.753,1.753,0,0,1,.906-.422,1.652,1.652,0,0,1,.453-1.656V-4h.672v2.344a1.1,1.1,0,0,0,.281.8,1.1,1.1,0,0,0,.8.281,1.039,1.039,0,0,0,.766-.281,1.1,1.1,0,0,0,.281-.8V-4Zm0,0" fill="#fff"/>
        </g>
      </g>
    </g>
    <g id="Group_145" data-name="Group 145">
      <g id="Group_144" data-name="Group 144" transform="translate(177.245 221.381)">
        <g id="Group_143" data-name="Group 143">
          <path id="Path_109" data-name="Path 109" d="M2.3-4.016a2.14,2.14,0,0,1,.828.172,1.975,1.975,0,0,1,.688.438l-.391.5a1.749,1.749,0,0,0-.516-.375,1.39,1.39,0,0,0-.594-.141,1.436,1.436,0,0,0-1.031.406,1.355,1.355,0,0,0-.406,1A1.4,1.4,0,0,0,1.281-1a1.42,1.42,0,0,0,1.031.406,1.528,1.528,0,0,0,1.109-.484l.406.453a2.581,2.581,0,0,1-.734.484,2.04,2.04,0,0,1-.812.172,2.091,2.091,0,0,1-1.5-.578A1.962,1.962,0,0,1,.188-2,1.907,1.907,0,0,1,.8-3.437,2.108,2.108,0,0,1,2.3-4.016Zm0,0" fill="#fff"/>
        </g>
      </g>
    </g>
    <g id="Group_148" data-name="Group 148">
      <g id="Group_147" data-name="Group 147" transform="translate(181.655 221.381)">
        <g id="Group_146" data-name="Group 146">
          <path id="Path_110" data-name="Path 110" d="M3.2,0,1.875-1.766l-.672.75V0H.531V-4H1.2v2.063L3.109-4h.8L2.359-2.3,4.016,0Zm0,0" fill="#fff"/>
        </g>
      </g>
    </g>
    <g id="Group_151" data-name="Group 151">
      <g id="Group_150" data-name="Group 150" transform="translate(186.185 221.381)">
        <g id="Group_149" data-name="Group 149">
          <path id="Path_111" data-name="Path 111" d="M1.2,0H.531V-4H1.2Zm0,0" fill="#fff"/>
        </g>
      </g>
    </g>
    <g id="Group_154" data-name="Group 154">
      <g id="Group_153" data-name="Group 153" transform="translate(188.339 221.381)">
        <g id="Group_152" data-name="Group 152">
          <path id="Path_112" data-name="Path 112" d="M4,0H3.328L1.2-2.875V0H.531V-4h.656L3.328-1.125V-4H4ZM4,0" fill="#fff"/>
        </g>
      </g>
    </g>
    <g id="Group_157" data-name="Group 157">
      <g id="Group_156" data-name="Group 156" transform="translate(193.291 221.381)">
        <g id="Group_155" data-name="Group 155">
          <path id="Path_113" data-name="Path 113" d="M3.266-1.969h.594V-.484a2.6,2.6,0,0,1-.734.375A2.615,2.615,0,0,1,2.3.031,2.091,2.091,0,0,1,.8-.547,1.947,1.947,0,0,1,.188-2,1.907,1.907,0,0,1,.8-3.437a2.195,2.195,0,0,1,1.547-.578,2.357,2.357,0,0,1,.828.156,2.089,2.089,0,0,1,.7.406L3.5-2.969a1.681,1.681,0,0,0-1.156-.453A1.451,1.451,0,0,0,1.3-3,1.34,1.34,0,0,0,.875-2,1.38,1.38,0,0,0,1.3-.984a1.469,1.469,0,0,0,1.047.406,1.737,1.737,0,0,0,.922-.281Zm0,0" fill="#fff"/>
        </g>
      </g>
    </g>
    <g id="Group_160" data-name="Group 160">
      <g id="Group_159" data-name="Group 159" transform="translate(199.9 221.381)">
        <g id="Group_158" data-name="Group 158">
          <path id="Path_114" data-name="Path 114" d="M1.2-.609H2.938V0H.531V-4H1.2Zm0,0" fill="#fff"/>
        </g>
      </g>
    </g>
    <g id="Group_163" data-name="Group 163">
      <g id="Group_162" data-name="Group 162" transform="translate(203.379 221.381)">
        <g id="Group_161" data-name="Group 161">
          <path id="Path_115" data-name="Path 115" d="M1.2-.609H2.938V0H.531V-4H1.2Zm0,0" fill="#fff"/>
        </g>
      </g>
    </g>
    <g id="Group_166" data-name="Group 166">
      <g id="Group_165" data-name="Group 165" transform="translate(206.858 221.381)">
        <g id="Group_164" data-name="Group 164">
          <path id="Path_116" data-name="Path 116" d="M2.3-4.016a2.14,2.14,0,0,1,.828.172,1.975,1.975,0,0,1,.688.438l-.391.5a1.749,1.749,0,0,0-.516-.375,1.39,1.39,0,0,0-.594-.141,1.436,1.436,0,0,0-1.031.406,1.355,1.355,0,0,0-.406,1A1.4,1.4,0,0,0,1.281-1a1.42,1.42,0,0,0,1.031.406,1.528,1.528,0,0,0,1.109-.484l.406.453a2.581,2.581,0,0,1-.734.484,2.04,2.04,0,0,1-.812.172,2.091,2.091,0,0,1-1.5-.578A1.962,1.962,0,0,1,.188-2,1.907,1.907,0,0,1,.8-3.437,2.108,2.108,0,0,1,2.3-4.016Zm0,0" fill="#fff"/>
        </g>
      </g>
    </g>
  </g>
</svg>
