<svg xmlns="http://www.w3.org/2000/svg" xmlns:xlink="http://www.w3.org/1999/xlink" width="500" zoomAndPan="magnify" viewBox="0 0 375 374.999991" height="500" preserveAspectRatio="xMidYMid meet" version="1.0"><defs><g/><clipPath id="70aa8a78cd"><path d="M 132.375 189.28125 L 242.625 189.28125 L 242.625 242.53125 L 132.375 242.53125 Z M 132.375 189.28125 " clip-rule="nonzero"/></clipPath><clipPath id="6beeb47b78"><path d="M 166.5625 155.722656 L 208.558594 155.722656 L 208.558594 209.628906 L 166.5625 209.628906 Z M 166.5625 155.722656 " clip-rule="nonzero"/></clipPath><clipPath id="b87158f230"><path d="M 143.25 207.863281 L 162.722656 207.863281 L 162.722656 209.144531 L 143.25 209.144531 Z M 143.25 207.863281 " clip-rule="nonzero"/></clipPath><clipPath id="c60417b232"><path d="M 145 206 L 162.722656 206 L 162.722656 208 L 145 208 Z M 145 206 " clip-rule="nonzero"/></clipPath><clipPath id="61cffbdc2e"><path d="M 147 204 L 162.722656 204 L 162.722656 207 L 147 207 Z M 147 204 " clip-rule="nonzero"/></clipPath><clipPath id="b2d585577f"><path d="M 150 202 L 162.722656 202 L 162.722656 205 L 150 205 Z M 150 202 " clip-rule="nonzero"/></clipPath><clipPath id="503a9c03ac"><path d="M 154 199 L 162.722656 199 L 162.722656 203 L 154 203 Z M 154 199 " clip-rule="nonzero"/></clipPath><clipPath id="aa57e00a92"><path d="M 158 197 L 162.722656 197 L 162.722656 200 L 158 200 Z M 158 197 " clip-rule="nonzero"/></clipPath><clipPath id="5f628bb2c0"><path d="M 212.003906 207.863281 L 231.503906 207.863281 L 231.503906 209.144531 L 212.003906 209.144531 Z M 212.003906 207.863281 " clip-rule="nonzero"/></clipPath><clipPath id="48f3c15986"><path d="M 212.003906 206 L 230 206 L 230 208 L 212.003906 208 Z M 212.003906 206 " clip-rule="nonzero"/></clipPath><clipPath id="692c23151d"><path d="M 212.003906 204 L 228 204 L 228 207 L 212.003906 207 Z M 212.003906 204 " clip-rule="nonzero"/></clipPath><clipPath id="f3f4c80338"><path d="M 212.003906 202 L 225 202 L 225 205 L 212.003906 205 Z M 212.003906 202 " clip-rule="nonzero"/></clipPath><clipPath id="9f22644290"><path d="M 212.003906 199 L 221 199 L 221 203 L 212.003906 203 Z M 212.003906 199 " clip-rule="nonzero"/></clipPath><clipPath id="4dd437c285"><path d="M 212.003906 197 L 217 197 L 217 200 L 212.003906 200 Z M 212.003906 197 " clip-rule="nonzero"/></clipPath></defs><g clip-path="url(#70aa8a78cd)"><path fill="#000000" d="M 187.5 242.625 C 157.042969 242.625 132.375 217.785156 132.375 187.5 C 132.375 157.214844 157.042969 132.375 187.5 132.375 C 217.953125 132.375 242.625 157.042969 242.625 187.5 C 242.625 217.953125 217.785156 242.625 187.5 242.625 Z M 187.5 135.777344 C 158.917969 135.777344 135.777344 158.917969 135.777344 187.5 C 135.777344 216.082031 158.917969 239.222656 187.5 239.222656 C 216.082031 239.222656 239.222656 216.082031 239.222656 187.5 C 239.222656 158.917969 215.914062 135.777344 187.5 135.777344 Z M 187.5 135.777344 " fill-opacity="1" fill-rule="nonzero"/></g><g fill="#000000" fill-opacity="1"><g transform="translate(141.910552, 182.040662)"><g><path d="M 2.640625 -10.703125 L 2.15625 -8.703125 L -3.671875 -10.125 L 0.71875 -6.75 L 0.359375 -5.28125 L -5.09375 -4.359375 L 0.71875 -2.921875 L 0.21875 -0.890625 L -8.734375 -3.109375 L -8.125 -5.59375 L -2.1875 -6.703125 L -6.921875 -10.4375 L -6.3125 -12.921875 Z M 2.640625 -10.703125 "/></g></g></g><g fill="#000000" fill-opacity="1"><g transform="translate(145.717006, 169.051351)"><g><path d="M 1.4375 -2.9375 L 0.40625 -0.828125 L -7.859375 -4.875 L -6.828125 -6.984375 Z M 1.4375 -2.9375 "/></g></g></g><g fill="#000000" fill-opacity="1"><g transform="translate(148.267792, 163.687267)"><g><path d="M -4.328125 -9.734375 C -3.921875 -10.273438 -3.40625 -10.726562 -2.78125 -11.09375 C -2.164062 -11.457031 -1.53125 -11.6875 -0.875 -11.78125 L -0.40625 -9.734375 C -0.863281 -9.722656 -1.300781 -9.613281 -1.71875 -9.40625 C -2.144531 -9.195312 -2.484375 -8.921875 -2.734375 -8.578125 C -3.171875 -7.992188 -3.328125 -7.351562 -3.203125 -6.65625 C -3.085938 -5.96875 -2.726562 -5.398438 -2.125 -4.953125 C -1.507812 -4.492188 -0.847656 -4.300781 -0.140625 -4.375 C 0.566406 -4.457031 1.140625 -4.789062 1.578125 -5.375 C 1.804688 -5.6875 1.96875 -6.066406 2.0625 -6.515625 C 2.164062 -6.960938 2.175781 -7.414062 2.09375 -7.875 L 4.078125 -8.125 C 4.179688 -7.414062 4.15625 -6.695312 4 -5.96875 C 3.84375 -5.238281 3.566406 -4.609375 3.171875 -4.078125 C 2.347656 -2.960938 1.296875 -2.304688 0.015625 -2.109375 C -1.265625 -1.910156 -2.445312 -2.210938 -3.53125 -3.015625 C -4.582031 -3.796875 -5.1875 -4.828125 -5.34375 -6.109375 C -5.507812 -7.398438 -5.171875 -8.609375 -4.328125 -9.734375 Z M -4.328125 -9.734375 "/></g></g></g><g fill="#000000" fill-opacity="1"><g transform="translate(154.657807, 155.271823)"><g><path d="M 7.28125 -5.953125 L 5.46875 -4.46875 L 3.203125 -7.234375 L 0.265625 -4.828125 L 2.53125 -2.0625 L 0.71875 -0.578125 L -5.109375 -7.703125 L -3.296875 -9.1875 L -0.890625 -6.25 L 2.046875 -8.65625 L -0.359375 -11.59375 L 1.453125 -13.078125 Z M 7.28125 -5.953125 "/></g></g></g><g fill="#000000" fill-opacity="1"><g transform="translate(164.221288, 148.041003)"><g><path d="M 2.875 -1.53125 L 0.8125 -0.4375 L -3.515625 -8.5625 L -1.453125 -9.65625 Z M 2.875 -1.53125 "/></g></g></g><g fill="#000000" fill-opacity="1"><g transform="translate(169.391368, 145.170198)"><g><path d="M 5.34375 -6.53125 L 7.265625 -7.125 L 8.3125 -3.703125 C 7.945312 -3.222656 7.457031 -2.769531 6.84375 -2.34375 C 6.238281 -1.914062 5.632812 -1.613281 5.03125 -1.4375 C 3.6875 -1.019531 2.429688 -1.101562 1.265625 -1.6875 C 0.109375 -2.28125 -0.660156 -3.210938 -1.046875 -4.484375 C -1.441406 -5.753906 -1.3125 -6.957031 -0.65625 -8.09375 C 0 -9.238281 1.023438 -10.023438 2.421875 -10.453125 C 3.066406 -10.660156 3.75 -10.742188 4.46875 -10.703125 C 5.1875 -10.671875 5.832031 -10.519531 6.40625 -10.25 L 5.625 -8.34375 C 5.207031 -8.539062 4.765625 -8.65625 4.296875 -8.6875 C 3.828125 -8.726562 3.390625 -8.6875 2.984375 -8.5625 C 2.265625 -8.34375 1.734375 -7.910156 1.390625 -7.265625 C 1.054688 -6.617188 1.003906 -5.925781 1.234375 -5.1875 C 1.453125 -4.445312 1.882812 -3.898438 2.53125 -3.546875 C 3.1875 -3.203125 3.882812 -3.144531 4.625 -3.375 C 5.09375 -3.519531 5.566406 -3.8125 6.046875 -4.25 Z M 5.34375 -6.53125 "/></g></g></g><g fill="#000000" fill-opacity="1"><g transform="translate(180.153486, 142.024865)"><g><path d="M 6.9375 -2.03125 L 2.9375 -1.828125 L 2.34375 -0.109375 L -0.0625 0 L 3.453125 -9.375 L 5.859375 -9.5 L 10.171875 -0.5 L 7.671875 -0.375 Z M 6.171875 -3.78125 L 4.703125 -7.109375 L 3.515625 -3.640625 Z M 6.171875 -3.78125 "/></g></g></g><g fill="#000000" fill-opacity="1"><g transform="translate(191.689171, 141.632281)"><g><path d="M 9.203125 1.9375 L 7.1875 1.515625 L 4.203125 -4.890625 L 3.046875 0.640625 L 0.90625 0.1875 L 2.796875 -8.8125 L 4.8125 -8.390625 L 7.796875 -1.953125 L 8.96875 -7.515625 L 11.09375 -7.0625 Z M 9.203125 1.9375 "/></g></g></g><g fill="#000000" fill-opacity="1"><g transform="translate(203.360287, 144.589743)"><g/></g></g><g fill="#000000" fill-opacity="1"><g transform="translate(207.859909, 146.150019)"><g><path d="M 9.140625 6.171875 L 7.4375 5.015625 L 10.765625 0.0625 L 6.09375 3 L 4.84375 2.15625 L 5.84375 -3.265625 L 2.5 1.6875 L 0.765625 0.515625 L 5.921875 -7.125 L 8.046875 -5.6875 L 7.046875 0.25 L 12.171875 -2.90625 L 14.296875 -1.46875 Z M 9.140625 6.171875 "/></g></g></g><g fill="#000000" fill-opacity="1"><g transform="translate(218.705556, 153.843934)"><g><path d="M 5.84375 4.265625 L 3.234375 1.203125 L 1.515625 1.78125 L -0.046875 -0.046875 L 9.546875 -3 L 11.109375 -1.15625 L 6.609375 7.765625 L 4.984375 5.859375 Z M 6.75 2.578125 L 8.5 -0.625 L 5.03125 0.5625 Z M 6.75 2.578125 "/></g></g></g><g fill="#000000" fill-opacity="1"><g transform="translate(226.049027, 162.761919)"><g><path d="M 8.6875 -3.1875 L 10.40625 0.375 C 11.039062 1.675781 11.171875 2.914062 10.796875 4.09375 C 10.429688 5.28125 9.628906 6.175781 8.390625 6.78125 C 7.179688 7.363281 5.988281 7.425781 4.8125 6.96875 C 3.644531 6.519531 2.738281 5.628906 2.09375 4.296875 L 0.40625 0.828125 Z M 8.015625 -0.265625 L 3.09375 2.125 L 3.828125 3.609375 C 4.140625 4.253906 4.625 4.675781 5.28125 4.875 C 5.9375 5.082031 6.628906 5.007812 7.359375 4.65625 C 8.085938 4.300781 8.570312 3.789062 8.8125 3.125 C 9.0625 2.46875 9.023438 1.804688 8.703125 1.140625 Z M 8.015625 -0.265625 "/></g></g></g><g fill="#000000" fill-opacity="1"><g transform="translate(230.869824, 173.265839)"><g><path d="M 8.90625 6.390625 L 7.890625 1.640625 L 6.09375 2.03125 L 7.015625 6.3125 L 5.21875 6.6875 L 4.296875 2.40625 L 2.484375 2.796875 L 3.53125 7.6875 L 1.734375 8.078125 L 0.1875 0.90625 L 9.1875 -1.03125 L 10.703125 6 Z M 8.90625 6.390625 "/></g></g></g><path fill="#ffde59" d="M 200.054688 192.132812 C 199.753906 192.132812 199.476562 192.230469 199.257812 192.402344 C 198.945312 192.640625 198.742188 193.019531 198.742188 193.441406 C 198.742188 194.167969 199.332031 194.753906 200.054688 194.753906 C 200.777344 194.753906 201.363281 194.167969 201.363281 193.441406 C 201.363281 192.71875 200.777344 192.132812 200.054688 192.132812 Z M 200.054688 193.882812 C 199.8125 193.882812 199.613281 193.683594 199.613281 193.441406 C 199.613281 193.199219 199.8125 193.003906 200.054688 193.003906 C 200.296875 193.003906 200.492188 193.199219 200.492188 193.441406 C 200.492188 193.683594 200.296875 193.882812 200.054688 193.882812 " fill-opacity="1" fill-rule="nonzero"/><path fill="#ffde59" d="M 199.40625 180.511719 L 199.40625 174.898438 L 198.8125 174.53125 L 198.8125 180.722656 L 199.40625 180.523438 L 199.40625 180.511719 " fill-opacity="1" fill-rule="nonzero"/><path fill="#ffde59" d="M 197.234375 192.035156 C 196.511719 192.035156 195.925781 192.621094 195.925781 193.347656 C 195.925781 194.070312 196.511719 194.660156 197.234375 194.660156 C 197.957031 194.660156 198.546875 194.070312 198.546875 193.347656 C 198.546875 192.621094 197.957031 192.035156 197.234375 192.035156 Z M 197.234375 193.785156 C 196.992188 193.785156 196.796875 193.589844 196.796875 193.347656 C 196.796875 193.105469 196.992188 192.90625 197.234375 192.90625 C 197.480469 192.90625 197.675781 193.105469 197.675781 193.347656 C 197.675781 193.589844 197.480469 193.785156 197.234375 193.785156 " fill-opacity="1" fill-rule="nonzero"/><path fill="#ffde59" d="M 198.230469 178.035156 L 198.230469 174.167969 L 188.007812 173.476562 L 187.777344 173.460938 L 187.363281 173.460938 L 187.117188 173.476562 L 176.890625 174.167969 L 176.894531 174.191406 L 176.894531 178.035156 C 176.894531 178.601562 177.371094 179.054688 177.9375 179.023438 L 186.371094 178.554688 C 186.929688 178.523438 187.363281 178.0625 187.363281 177.507812 L 187.363281 173.691406 L 187.761719 173.691406 L 187.761719 177.507812 C 187.761719 178.0625 188.195312 178.523438 188.75 178.554688 L 197.1875 179.023438 C 197.753906 179.054688 198.230469 178.601562 198.230469 178.035156 " fill-opacity="1" fill-rule="nonzero"/><path fill="#ffde59" d="M 179.199219 193.347656 C 179.199219 192.621094 178.613281 192.035156 177.890625 192.035156 C 177.164062 192.035156 176.578125 192.621094 176.578125 193.347656 C 176.578125 194.070312 177.164062 194.660156 177.890625 194.660156 C 178.613281 194.660156 179.199219 194.070312 179.199219 193.347656 Z M 177.449219 193.347656 C 177.449219 193.105469 177.644531 192.90625 177.890625 192.90625 C 178.132812 192.90625 178.328125 193.105469 178.328125 193.347656 C 178.328125 193.589844 178.132812 193.785156 177.890625 193.785156 C 177.644531 193.785156 177.449219 193.589844 177.449219 193.347656 " fill-opacity="1" fill-rule="nonzero"/><path fill="#ffde59" d="M 175.714844 180.523438 L 176.3125 180.722656 L 176.3125 174.53125 L 175.714844 174.898438 L 175.714844 180.523438 " fill-opacity="1" fill-rule="nonzero"/><path fill="#ffde59" d="M 175.867188 192.402344 C 175.648438 192.230469 175.371094 192.132812 175.070312 192.132812 C 174.347656 192.132812 173.761719 192.71875 173.761719 193.441406 C 173.761719 194.167969 174.347656 194.753906 175.070312 194.753906 C 175.792969 194.753906 176.378906 194.167969 176.378906 193.441406 C 176.378906 193.019531 176.179688 192.640625 175.867188 192.402344 Z M 175.070312 193.882812 C 174.828125 193.882812 174.628906 193.683594 174.628906 193.441406 C 174.628906 193.199219 174.828125 193.003906 175.070312 193.003906 C 175.3125 193.003906 175.507812 193.199219 175.507812 193.441406 C 175.507812 193.683594 175.3125 193.882812 175.070312 193.882812 " fill-opacity="1" fill-rule="nonzero"/><g clip-path="url(#6beeb47b78)"><path fill="#ffde59" d="M 208.0625 199.566406 L 207.308594 199.566406 C 207.3125 199.332031 207.304688 199.136719 207.292969 198.988281 C 207.425781 198.96875 207.546875 198.941406 207.648438 198.910156 C 207.742188 198.878906 207.820312 198.84375 207.878906 198.804688 C 208.578125 198.339844 208.246094 192.097656 207.085938 191.265625 C 206.863281 191.105469 206.507812 190.964844 206.074219 190.84375 L 206.109375 190.574219 C 206.550781 190.53125 206.894531 190.160156 206.894531 189.707031 C 206.894531 189.226562 206.503906 188.835938 206.023438 188.835938 C 205.542969 188.835938 205.152344 189.226562 205.152344 189.707031 L 205.152344 181.558594 C 205.152344 181.328125 204.964844 181.140625 204.734375 181.140625 L 204.230469 181.140625 C 204.230469 181.015625 204.230469 180.871094 204.230469 180.707031 C 204.230469 180.65625 204.230469 180.601562 204.230469 180.542969 C 204.222656 176.070312 204.191406 159.90625 204.234375 158.277344 C 204.265625 157.035156 204.113281 156.136719 203.636719 155.835938 C 203.53125 155.765625 203.40625 155.730469 203.265625 155.722656 C 203.261719 155.722656 203.261719 155.722656 203.261719 155.722656 C 203.222656 155.722656 203.183594 155.722656 203.140625 155.726562 C 202.980469 155.742188 202.796875 155.792969 202.589844 155.886719 C 202.390625 155.976562 202.21875 156.082031 202.066406 156.195312 C 201.050781 156.96875 201.050781 158.175781 201.050781 158.175781 L 201.050781 173.898438 L 200.070312 173.898438 L 200.070312 172.808594 C 200.070312 172.632812 200.007812 172.464844 199.898438 172.332031 L 199.371094 171.703125 C 199.011719 171.269531 198.492188 171 197.929688 170.957031 C 197.613281 170.933594 197.21875 170.90625 196.765625 170.875 C 197.09375 170.796875 197.339844 170.5 197.339844 170.144531 C 197.339844 169.734375 197.003906 169.398438 196.59375 169.398438 C 196.179688 169.398438 195.847656 169.734375 195.847656 170.144531 C 195.847656 170.464844 196.046875 170.738281 196.324219 170.84375 C 196.132812 170.832031 195.929688 170.820312 195.71875 170.804688 C 195.535156 170.792969 195.34375 170.78125 195.148438 170.773438 C 194.980469 170.761719 194.804688 170.753906 194.628906 170.742188 C 194.894531 170.628906 195.082031 170.363281 195.082031 170.054688 C 195.082031 169.644531 194.746094 169.308594 194.335938 169.308594 C 193.921875 169.308594 193.589844 169.644531 193.589844 170.054688 C 193.589844 170.335938 193.742188 170.582031 193.972656 170.707031 C 193.46875 170.683594 192.945312 170.65625 192.402344 170.636719 C 192.652344 170.515625 192.824219 170.257812 192.824219 169.964844 C 192.824219 169.550781 192.488281 169.21875 192.078125 169.21875 C 191.664062 169.21875 191.332031 169.550781 191.332031 169.964844 C 191.332031 170.238281 191.480469 170.480469 191.699219 170.609375 C 191.179688 170.589844 190.648438 170.574219 190.109375 170.5625 C 190.378906 170.449219 190.566406 170.183594 190.566406 169.875 C 190.566406 169.460938 190.230469 169.125 189.820312 169.125 C 189.640625 169.125 189.480469 169.1875 189.351562 169.292969 C 189.179688 169.429688 189.074219 169.640625 189.074219 169.875 C 189.074219 169.941406 189.082031 170.007812 189.101562 170.070312 C 189.15625 170.28125 189.304688 170.457031 189.5 170.546875 C 189.316406 170.542969 189.132812 170.542969 188.949219 170.539062 C 188.488281 170.535156 188.023438 170.53125 187.5625 170.53125 C 187.972656 170.53125 188.308594 170.195312 188.308594 169.78125 C 188.308594 169.371094 187.972656 169.035156 187.5625 169.035156 C 187.148438 169.035156 186.816406 169.371094 186.816406 169.78125 C 186.816406 170.191406 187.144531 170.527344 187.554688 170.53125 C 187.09375 170.53125 186.632812 170.535156 186.171875 170.539062 C 185.992188 170.542969 185.808594 170.542969 185.625 170.546875 C 185.820312 170.457031 185.964844 170.28125 186.023438 170.070312 C 186.042969 170.007812 186.050781 169.941406 186.050781 169.875 C 186.050781 169.640625 185.941406 169.429688 185.773438 169.292969 C 185.644531 169.1875 185.484375 169.125 185.304688 169.125 C 184.890625 169.125 184.558594 169.460938 184.558594 169.875 C 184.558594 170.183594 184.746094 170.449219 185.011719 170.5625 C 184.472656 170.574219 183.941406 170.589844 183.425781 170.609375 C 183.644531 170.480469 183.792969 170.238281 183.792969 169.964844 C 183.792969 169.550781 183.460938 169.21875 183.046875 169.21875 C 182.636719 169.21875 182.300781 169.550781 182.300781 169.964844 C 182.300781 170.257812 182.472656 170.515625 182.71875 170.636719 C 182.175781 170.65625 181.652344 170.683594 181.152344 170.707031 C 181.382812 170.578125 181.535156 170.335938 181.535156 170.054688 C 181.535156 169.644531 181.203125 169.308594 180.789062 169.308594 C 180.378906 169.308594 180.042969 169.644531 180.042969 170.054688 C 180.042969 170.363281 180.230469 170.628906 180.496094 170.742188 C 180.277344 170.753906 180.066406 170.765625 179.863281 170.777344 C 179.707031 170.789062 179.554688 170.796875 179.40625 170.804688 C 179.195312 170.820312 178.992188 170.832031 178.800781 170.84375 C 179.078125 170.738281 179.277344 170.464844 179.277344 170.144531 C 179.277344 169.734375 178.941406 169.398438 178.53125 169.398438 C 178.121094 169.398438 177.785156 169.734375 177.785156 170.144531 C 177.785156 170.5 178.03125 170.796875 178.359375 170.875 C 177.902344 170.90625 177.511719 170.933594 177.195312 170.957031 C 176.632812 171 176.113281 171.269531 175.75 171.703125 L 175.226562 172.332031 C 175.113281 172.464844 175.054688 172.632812 175.054688 172.808594 L 175.054688 173.898438 L 174.074219 173.898438 L 174.074219 158.175781 C 174.074219 158.175781 174.074219 156.988281 173.082031 156.214844 C 172.921875 156.089844 172.742188 155.980469 172.53125 155.886719 C 172.328125 155.792969 172.144531 155.742188 171.984375 155.726562 C 171.941406 155.722656 171.902344 155.722656 171.863281 155.722656 C 171.863281 155.722656 171.863281 155.722656 171.859375 155.722656 C 171.71875 155.730469 171.59375 155.765625 171.488281 155.835938 C 171.007812 156.136719 170.859375 157.035156 170.890625 158.277344 C 170.933594 159.90625 170.902344 176.066406 170.894531 180.542969 C 170.894531 180.601562 170.890625 180.65625 170.890625 180.710938 C 170.890625 180.871094 170.890625 181.015625 170.890625 181.140625 L 170.390625 181.140625 C 170.15625 181.140625 169.972656 181.328125 169.972656 181.558594 L 169.972656 190.636719 C 169.773438 190.671875 169.585938 190.710938 169.40625 190.753906 L 169.378906 190.53125 C 169.722656 190.417969 169.972656 190.089844 169.972656 189.707031 C 169.972656 189.226562 169.582031 188.835938 169.101562 188.835938 C 168.617188 188.835938 168.230469 189.226562 168.230469 189.707031 C 168.230469 190.160156 168.574219 190.53125 169.015625 190.574219 L 169.050781 190.84375 C 168.617188 190.964844 168.261719 191.105469 168.039062 191.265625 C 166.878906 192.097656 166.546875 198.339844 167.242188 198.804688 C 167.308594 198.847656 167.394531 198.882812 167.5 198.914062 C 167.59375 198.945312 167.707031 198.96875 167.832031 198.988281 C 167.820312 199.136719 167.8125 199.332031 167.816406 199.566406 L 167.0625 199.566406 C 166.785156 199.566406 166.5625 199.792969 166.5625 200.066406 L 166.5625 209.132812 C 166.5625 209.40625 166.785156 209.628906 167.0625 209.628906 L 208.0625 209.628906 C 208.339844 209.628906 208.5625 209.40625 208.5625 209.132812 L 208.5625 200.066406 C 208.5625 199.792969 208.339844 199.566406 208.0625 199.566406 Z M 206.023438 189.019531 C 206.402344 189.019531 206.707031 189.328125 206.707031 189.707031 C 206.707031 190.046875 206.460938 190.332031 206.132812 190.382812 C 206.097656 190.390625 206.0625 190.390625 206.023438 190.390625 C 205.933594 190.390625 205.851562 190.375 205.769531 190.34375 C 205.519531 190.242188 205.339844 189.996094 205.339844 189.707031 C 205.339844 189.328125 205.644531 189.019531 206.023438 189.019531 Z M 205.152344 190.113281 L 205.152344 189.714844 C 205.15625 190.09375 205.402344 190.417969 205.746094 190.53125 L 205.71875 190.753906 C 205.539062 190.710938 205.347656 190.671875 205.152344 190.636719 Z M 206.128906 191.433594 C 207.707031 192.066406 207.558594 197.011719 207.5 198.160156 C 207.15625 196.425781 206.410156 193.089844 205.695312 192.3125 C 204.710938 191.25 200.515625 191.136719 200.515625 191.136719 C 200.515625 191.136719 203.605469 190.417969 206.128906 191.433594 Z M 204.480469 181.546875 C 204.589844 181.570312 204.671875 181.59375 204.734375 181.621094 L 204.734375 190.054688 C 204.597656 190.039062 204.429688 190.019531 204.242188 190 Z M 203.140625 156.179688 C 203.308594 156.222656 203.5 156.359375 203.636719 156.722656 L 203.636719 180.628906 L 203.140625 180.5625 Z M 203.867188 181.464844 C 204.011719 181.476562 204.132812 181.488281 204.242188 181.503906 L 204.019531 185.242188 L 203.734375 189.953125 C 202.625 189.867188 201.121094 189.839844 200.175781 190.1875 L 200.175781 185.96875 L 200.945312 185.96875 C 200.9375 185.960938 200.933594 185.953125 200.929688 185.945312 C 200.96875 185.960938 201.007812 185.96875 201.050781 185.96875 L 200.945312 185.96875 C 201.21875 186.410156 201.703125 186.703125 202.257812 186.703125 C 203.089844 186.703125 203.765625 186.050781 203.808594 185.226562 C 203.808594 185.203125 203.808594 185.175781 203.808594 185.148438 C 203.808594 184.292969 203.117188 183.597656 202.257812 183.597656 C 201.75 183.597656 201.292969 183.84375 201.011719 184.226562 L 201.050781 184.226562 C 201.035156 184.226562 201.023438 184.226562 201.007812 184.230469 C 201.007812 184.230469 201.011719 184.226562 201.011719 184.226562 L 200.175781 184.226562 L 200.175781 182.933594 C 200.828125 182.453125 201.96875 181.980469 202.039062 181.953125 C 201.253906 182.035156 200.554688 182.285156 200.175781 182.445312 L 200.175781 181.941406 C 200.183594 181.917969 200.195312 181.894531 200.210938 181.871094 C 201.242188 181.417969 203.082031 181.417969 203.867188 181.464844 Z M 197.390625 181.125 C 197.121094 180.792969 196.75 180.5 196.238281 180.308594 C 196.046875 180.238281 195.839844 180.183594 195.609375 180.144531 C 193.347656 179.757812 191.027344 179.632812 188.679688 179.601562 C 188.589844 178.945312 187.5625 178.960938 187.5625 178.960938 C 187.5625 178.960938 186.535156 178.945312 186.445312 179.601562 C 184.097656 179.632812 181.777344 179.757812 179.515625 180.144531 C 179.285156 180.179688 179.078125 180.238281 178.890625 180.308594 C 178.378906 180.5 178.003906 180.792969 177.730469 181.125 C 177.703125 181.15625 177.675781 181.191406 177.648438 181.226562 C 177.570312 181.332031 177.503906 181.441406 177.441406 181.550781 C 177.160156 182.0625 177.058594 182.589844 177.027344 182.933594 C 177.003906 183.160156 177.011719 183.304688 177.011719 183.304688 L 177.011719 184.226562 L 176.539062 178.570312 L 176.539062 181.511719 L 175.507812 181.15625 C 175.507812 181.066406 175.507812 180.964844 175.503906 180.851562 C 175.503906 180.75 175.503906 180.640625 175.503906 180.527344 C 175.496094 178.457031 175.484375 174.101562 175.507812 174.089844 L 176.472656 173.691406 L 186.941406 172.933594 L 187.363281 172.90625 L 187.761719 172.90625 L 188.183594 172.933594 L 198.648438 173.691406 L 199.617188 174.089844 C 199.640625 174.101562 199.628906 178.4375 199.617188 180.511719 C 199.617188 180.632812 199.617188 180.746094 199.617188 180.851562 C 199.617188 180.964844 199.617188 181.066406 199.617188 181.15625 L 198.585938 181.511719 L 198.585938 178.601562 L 198.113281 184.226562 L 198.113281 183.304688 C 198.113281 183.304688 198.121094 183.164062 198.097656 182.933594 C 198.066406 182.59375 197.964844 182.0625 197.683594 181.550781 C 197.640625 181.480469 197.597656 181.40625 197.550781 181.335938 C 197.5 181.261719 197.449219 181.191406 197.390625 181.125 Z M 197.398438 181.613281 L 194.492188 182.25 L 194.488281 182.25 C 194.390625 181.925781 194.238281 181.617188 194.039062 181.335938 C 193.941406 181.195312 193.832031 181.066406 193.707031 180.949219 L 197.007812 181.105469 C 197.109375 181.199219 197.214844 181.316406 197.308594 181.460938 C 197.339844 181.507812 197.371094 181.558594 197.398438 181.613281 Z M 187.5625 180.941406 C 188.265625 180.941406 188.832031 181.234375 188.832031 181.597656 C 188.832031 181.957031 188.265625 182.25 187.5625 182.25 C 186.859375 182.25 186.289062 181.957031 186.289062 181.597656 C 186.289062 181.234375 186.859375 180.941406 187.5625 180.941406 Z M 186.574219 179.496094 C 186.574219 179.332031 187.015625 179.195312 187.5625 179.195312 C 188.109375 179.195312 188.550781 179.332031 188.550781 179.496094 C 188.550781 179.53125 188.53125 179.566406 188.488281 179.601562 C 188.347656 179.710938 187.988281 179.792969 187.5625 179.792969 C 187.136719 179.792969 186.777344 179.710938 186.632812 179.601562 C 186.59375 179.566406 186.574219 179.53125 186.574219 179.496094 Z M 181.414062 180.949219 C 181.292969 181.066406 181.183594 181.195312 181.082031 181.335938 C 180.886719 181.617188 180.734375 181.925781 180.632812 182.25 L 177.722656 181.613281 C 177.769531 181.53125 177.816406 181.457031 177.863281 181.390625 C 177.945312 181.277344 178.03125 181.183594 178.117188 181.105469 Z M 177.460938 184.5625 L 177.902344 184.5625 C 177.929688 184.664062 177.945312 184.78125 177.957031 184.910156 L 173.574219 184.910156 C 173.589844 184.78125 173.625 184.664062 173.671875 184.5625 Z M 198.113281 184.5625 L 201.453125 184.5625 C 201.5 184.664062 201.535156 184.78125 201.550781 184.910156 L 197.167969 184.910156 C 197.175781 184.78125 197.195312 184.664062 197.21875 184.5625 Z M 202.085938 183.96875 C 202.085938 183.96875 203.410156 183.863281 203.390625 185.242188 L 203.378906 185.242188 C 203.363281 184.386719 202.085938 183.96875 202.085938 183.96875 Z M 199.804688 174.53125 L 199.953125 174.300781 C 199.976562 174.265625 199.996094 174.230469 200.011719 174.191406 L 201.050781 174.191406 L 201.050781 181.140625 L 200.035156 181.140625 C 200.003906 181.140625 199.976562 181.140625 199.949219 181.148438 L 199.804688 180.792969 Z M 196.089844 170.144531 C 196.089844 169.867188 196.3125 169.644531 196.59375 169.644531 C 196.871094 169.644531 197.09375 169.867188 197.09375 170.144531 C 197.09375 170.425781 196.871094 170.648438 196.59375 170.648438 C 196.3125 170.648438 196.089844 170.425781 196.089844 170.144531 Z M 193.832031 170.054688 C 193.832031 169.777344 194.058594 169.550781 194.335938 169.550781 C 194.613281 169.550781 194.835938 169.777344 194.835938 170.054688 C 194.835938 170.332031 194.613281 170.558594 194.335938 170.558594 C 194.058594 170.558594 193.832031 170.332031 193.832031 170.054688 Z M 191.574219 169.964844 C 191.574219 169.6875 191.800781 169.460938 192.078125 169.460938 C 192.355469 169.460938 192.582031 169.6875 192.582031 169.964844 C 192.582031 170.242188 192.355469 170.46875 192.078125 170.46875 C 191.800781 170.46875 191.574219 170.242188 191.574219 169.964844 Z M 189.316406 169.875 C 189.316406 169.59375 189.542969 169.371094 189.820312 169.371094 C 190.097656 169.371094 190.320312 169.59375 190.320312 169.875 C 190.320312 170.152344 190.097656 170.375 189.820312 170.375 C 189.542969 170.375 189.316406 170.152344 189.316406 169.875 Z M 187.058594 169.78125 C 187.058594 169.503906 187.285156 169.277344 187.5625 169.277344 C 187.839844 169.277344 188.066406 169.503906 188.066406 169.78125 C 188.066406 170.058594 187.839844 170.285156 187.5625 170.285156 C 187.285156 170.285156 187.058594 170.058594 187.058594 169.78125 Z M 184.800781 169.875 C 184.800781 169.59375 185.027344 169.371094 185.304688 169.371094 C 185.582031 169.371094 185.808594 169.59375 185.808594 169.875 C 185.808594 170.152344 185.582031 170.375 185.304688 170.375 C 185.027344 170.375 184.800781 170.152344 184.800781 169.875 Z M 182.542969 169.964844 C 182.542969 169.6875 182.769531 169.460938 183.046875 169.460938 C 183.324219 169.460938 183.550781 169.6875 183.550781 169.964844 C 183.550781 170.242188 183.324219 170.46875 183.046875 170.46875 C 182.769531 170.46875 182.542969 170.242188 182.542969 169.964844 Z M 180.285156 170.054688 C 180.285156 169.777344 180.511719 169.550781 180.789062 169.550781 C 181.066406 169.550781 181.292969 169.777344 181.292969 170.054688 C 181.292969 170.332031 181.066406 170.558594 180.789062 170.558594 C 180.511719 170.558594 180.285156 170.332031 180.285156 170.054688 Z M 178.027344 170.144531 C 178.027344 169.867188 178.253906 169.644531 178.53125 169.644531 C 178.808594 169.644531 179.035156 169.867188 179.035156 170.144531 C 179.035156 170.425781 178.808594 170.648438 178.53125 170.648438 C 178.253906 170.648438 178.027344 170.425781 178.027344 170.144531 Z M 176.46875 171.703125 C 176.882812 171.257812 178.546875 171.074219 179.878906 171 C 180.789062 170.949219 181.542969 170.949219 181.632812 170.949219 C 181.636719 170.949219 181.640625 170.949219 181.640625 170.949219 L 186.375 171.171875 L 187.5625 171.226562 L 188.746094 171.171875 L 193.484375 170.949219 C 193.484375 170.949219 193.488281 170.949219 193.492188 170.949219 C 193.574219 170.949219 194.273438 170.949219 195.136719 170.992188 C 196.484375 171.0625 198.230469 171.242188 198.65625 171.703125 C 199.371094 172.480469 199.742188 173.015625 199.773438 174 C 199.734375 173.886719 199.644531 173.792969 199.53125 173.738281 L 198.648438 173.203125 C 198.613281 172.765625 198.480469 172.285156 198.113281 172 C 197.082031 171.195312 190.648438 171.792969 188.476562 172.019531 C 188.027344 172.066406 187.761719 172.097656 187.761719 172.097656 L 187.363281 172.097656 C 187.363281 172.097656 187.097656 172.066406 186.648438 172.019531 C 184.476562 171.792969 178.039062 171.195312 177.007812 172 C 176.640625 172.285156 176.511719 172.765625 176.476562 173.199219 L 175.589844 173.738281 C 175.476562 173.792969 175.390625 173.886719 175.347656 174 C 175.382812 173.015625 175.753906 172.480469 176.46875 171.703125 Z M 174.074219 174.191406 L 175.113281 174.191406 C 175.128906 174.230469 175.148438 174.265625 175.171875 174.300781 L 175.316406 174.53125 L 175.316406 180.792969 L 175.175781 181.148438 C 175.148438 181.140625 175.121094 181.140625 175.089844 181.140625 L 174.074219 181.140625 Z M 171.488281 156.722656 C 171.625 156.359375 171.816406 156.222656 171.984375 156.179688 L 171.984375 180.566406 L 171.488281 180.632812 Z M 171.257812 181.464844 C 172.042969 181.417969 173.882812 181.417969 174.910156 181.871094 C 174.949219 181.925781 174.96875 181.988281 174.96875 182.050781 L 174.96875 182.453125 C 174.597656 182.296875 173.882812 182.035156 173.082031 181.953125 C 173.082031 181.953125 174.304688 182.449219 174.96875 182.953125 L 174.96875 184.226562 L 174.113281 184.226562 C 174.113281 184.226562 174.113281 184.230469 174.113281 184.230469 C 174.101562 184.226562 174.089844 184.226562 174.074219 184.226562 L 174.113281 184.226562 C 173.828125 183.84375 173.375 183.597656 172.863281 183.597656 C 172.007812 183.597656 171.3125 184.292969 171.3125 185.148438 C 171.3125 185.175781 171.3125 185.203125 171.316406 185.226562 C 171.355469 186.050781 172.035156 186.703125 172.863281 186.703125 C 173.417969 186.703125 173.90625 186.410156 174.179688 185.96875 L 174.074219 185.96875 C 174.117188 185.96875 174.15625 185.960938 174.195312 185.945312 C 174.1875 185.953125 174.183594 185.960938 174.179688 185.96875 L 174.96875 185.96875 L 174.96875 190.1875 C 174.015625 189.835938 172.5 189.867188 171.386719 189.953125 L 171.105469 185.242188 L 170.882812 181.503906 C 170.988281 181.488281 171.113281 181.476562 171.257812 181.464844 Z M 173.039062 183.96875 C 173.039062 183.96875 171.761719 184.386719 171.746094 185.242188 L 171.734375 185.242188 C 171.714844 183.863281 173.039062 183.96875 173.039062 183.96875 Z M 170.390625 181.621094 C 170.453125 181.59375 170.535156 181.570312 170.644531 181.546875 L 170.882812 190.003906 C 170.695312 190.023438 170.527344 190.042969 170.390625 190.058594 Z M 168.988281 190.382812 C 168.664062 190.332031 168.414062 190.046875 168.414062 189.707031 C 168.414062 189.328125 168.722656 189.019531 169.101562 189.019531 C 169.480469 189.019531 169.785156 189.328125 169.785156 189.707031 C 169.785156 189.996094 169.605469 190.242188 169.351562 190.34375 C 169.273438 190.375 169.191406 190.390625 169.101562 190.390625 C 169.0625 190.390625 169.023438 190.390625 168.988281 190.382812 Z M 167.644531 198.160156 C 167.585938 197.011719 167.433594 192.066406 169.015625 191.433594 C 171.542969 190.417969 174.628906 191.136719 174.628906 191.136719 C 174.628906 191.136719 170.433594 191.25 169.453125 192.3125 C 168.734375 193.089844 167.992188 196.425781 167.644531 198.160156 Z M 168.617188 200.351562 C 168.25 200.375 167.953125 200.660156 167.914062 201.023438 L 167.402344 205.949219 C 167.371094 205.96875 167.339844 205.992188 167.308594 206.011719 L 167.308594 200.644531 C 167.308594 200.382812 167.445312 200.152344 167.648438 200.015625 L 172.964844 200.015625 L 173.007812 200.078125 Z M 175.070312 195.070312 C 174.171875 195.070312 173.445312 194.339844 173.445312 193.441406 C 173.445312 192.542969 174.171875 191.816406 175.070312 191.816406 L 175.796875 191.789062 L 176.539062 191.765625 L 177.011719 191.75 L 177.890625 191.71875 C 178.253906 191.71875 178.589844 191.839844 178.859375 192.042969 C 178.859375 192.042969 178.863281 192.042969 178.863281 192.042969 C 179.257812 192.339844 179.515625 192.8125 179.515625 193.347656 C 179.515625 194.246094 178.785156 194.972656 177.890625 194.972656 L 175.507812 195.054688 Z M 180.269531 198.992188 L 177.320312 198.578125 L 177.027344 195.605469 C 178.269531 195.5 179.640625 195.171875 179.746094 194.273438 C 179.773438 194.050781 179.777344 193.847656 179.761719 193.667969 C 179.761719 193.652344 179.761719 193.640625 179.757812 193.628906 C 179.640625 191.367188 177.027344 191.300781 177.027344 191.300781 L 177.011719 191.300781 L 177.011719 186.707031 C 178.085938 186.746094 178.328125 185.847656 178.328125 185.148438 C 178.328125 185.023438 178.308594 184.914062 178.277344 184.816406 C 178.210938 184.414062 177.996094 184.199219 177.761719 184.089844 C 177.761719 184.089844 177.761719 184.089844 177.757812 184.085938 C 177.734375 184.046875 176.988281 182.929688 178.191406 183.042969 L 180.484375 183.257812 L 180.636719 199.042969 Z M 183.402344 180.515625 C 183.402344 180.515625 181.324219 181.679688 180.839844 183.832031 C 180.902344 180.898438 183.402344 180.515625 183.402344 180.515625 Z M 192.183594 198.871094 L 182.941406 198.871094 L 182.917969 198.398438 L 192.207031 198.398438 Z M 192.230469 197.925781 L 182.890625 197.925781 L 182.867188 197.453125 L 192.257812 197.453125 Z M 192.28125 196.980469 L 182.839844 196.980469 L 182.816406 196.503906 L 192.308594 196.503906 Z M 192.332031 196.03125 L 182.789062 196.03125 L 182.765625 195.558594 L 192.359375 195.558594 Z M 192.382812 195.085938 L 182.742188 195.085938 L 182.714844 194.613281 L 192.410156 194.613281 Z M 192.433594 194.140625 L 182.691406 194.140625 L 182.664062 193.667969 L 192.460938 193.667969 Z M 192.484375 193.191406 L 182.640625 193.191406 L 182.613281 192.71875 L 192.511719 192.71875 Z M 192.535156 192.246094 L 182.589844 192.246094 L 182.5625 191.773438 L 192.558594 191.773438 Z M 192.585938 191.300781 L 182.539062 191.300781 L 182.515625 190.828125 L 192.609375 190.828125 Z M 192.636719 190.355469 L 182.488281 190.355469 L 182.464844 189.882812 L 192.660156 189.882812 Z M 192.6875 189.40625 L 182.4375 189.40625 L 182.414062 188.933594 L 192.710938 188.933594 Z M 192.734375 188.460938 L 182.386719 188.460938 L 182.363281 187.988281 L 192.761719 187.988281 Z M 192.785156 187.515625 L 182.335938 187.515625 L 182.3125 187.042969 L 192.8125 187.042969 Z M 192.835938 186.570312 L 182.285156 186.570312 L 182.261719 186.09375 L 192.863281 186.09375 Z M 192.886719 185.621094 L 182.238281 185.621094 L 182.210938 185.148438 L 192.914062 185.148438 Z M 192.9375 184.675781 L 182.1875 184.675781 L 182.160156 184.203125 L 192.960938 184.203125 Z M 191.722656 180.515625 C 191.722656 180.515625 194.222656 180.898438 194.28125 183.832031 C 193.800781 181.679688 191.722656 180.515625 191.722656 180.515625 Z M 198.097656 195.605469 L 197.804688 198.582031 L 194.488281 199.046875 L 194.640625 183.257812 L 194.660156 183.257812 L 197.015625 183.035156 C 197.019531 183.035156 197.019531 183.035156 197.023438 183.035156 C 198.097656 182.988281 197.390625 184.046875 197.363281 184.085938 L 197.363281 184.089844 C 197.128906 184.199219 196.910156 184.414062 196.847656 184.816406 L 196.867188 184.824219 C 196.835938 184.917969 196.816406 185.027344 196.816406 185.148438 C 196.816406 185.839844 197.054688 186.734375 198.113281 186.710938 L 198.113281 191.300781 L 198.097656 191.300781 C 198.097656 191.300781 195.457031 191.371094 195.363281 193.667969 L 195.382812 193.667969 C 195.371094 193.851562 195.375 194.050781 195.398438 194.273438 C 195.507812 195.167969 196.859375 195.496094 198.097656 195.605469 Z M 200.054688 195.070312 L 199.617188 195.054688 L 197.234375 194.972656 C 196.335938 194.972656 195.609375 194.246094 195.609375 193.347656 C 195.609375 192.847656 195.832031 192.402344 196.183594 192.105469 C 196.183594 192.105469 196.1875 192.105469 196.1875 192.105469 C 196.46875 191.863281 196.835938 191.71875 197.234375 191.71875 L 198.113281 191.75 L 198.585938 191.765625 L 199.328125 191.789062 L 200.054688 191.816406 C 200.953125 191.816406 201.679688 192.542969 201.679688 193.441406 C 201.679688 194.339844 200.953125 195.070312 200.054688 195.070312 Z M 207.816406 206.011719 C 207.785156 205.992188 207.753906 205.96875 207.722656 205.949219 L 207.210938 201.023438 C 207.171875 200.660156 206.875 200.375 206.507812 200.351562 L 202.117188 200.078125 L 202.242188 199.894531 L 207.0625 199.894531 C 207.476562 199.894531 207.816406 200.230469 207.816406 200.644531 L 207.816406 206.011719 " fill-opacity="1" fill-rule="nonzero"/></g><g clip-path="url(#b87158f230)"><path fill="#000000" d="M 180.859375 207.871094 C 181.457031 208.375 182.152344 208.808594 182.949219 209.144531 C 169.691406 208.976562 156.457031 208.785156 143.25 208.570312 C 155.761719 208.355469 168.296875 208.121094 180.859375 207.871094 " fill-opacity="1" fill-rule="nonzero"/></g><g clip-path="url(#c60417b232)"><path fill="#000000" d="M 179.363281 206.160156 C 179.761719 206.785156 180.257812 207.363281 180.855469 207.867188 C 168.902344 207.617188 156.972656 207.34375 145.066406 207.058594 C 156.472656 206.773438 167.90625 206.472656 179.363281 206.160156 " fill-opacity="1" fill-rule="nonzero"/></g><g clip-path="url(#61cffbdc2e)"><path fill="#000000" d="M 178.464844 204.164062 C 178.664062 204.859375 178.964844 205.535156 179.363281 206.160156 C 168.710938 205.847656 158.085938 205.519531 147.484375 205.1875 C 157.785156 204.855469 168.113281 204.511719 178.464844 204.164062 " fill-opacity="1" fill-rule="nonzero"/></g><g clip-path="url(#b2d585577f)"><path fill="#000000" d="M 178.167969 202.019531 C 178.167969 202.742188 178.265625 203.464844 178.464844 204.160156 C 169.117188 203.8125 159.796875 203.457031 150.496094 203.101562 C 159.695312 202.742188 168.917969 202.382812 178.167969 202.019531 " fill-opacity="1" fill-rule="nonzero"/></g><g clip-path="url(#503a9c03ac)"><path fill="#000000" d="M 178.464844 199.878906 C 178.265625 200.578125 178.167969 201.296875 178.167969 202.019531 C 170.121094 201.660156 162.101562 201.296875 154.109375 200.941406 C 162.203125 200.582031 170.320312 200.226562 178.464844 199.878906 " fill-opacity="1" fill-rule="nonzero"/></g><g clip-path="url(#aa57e00a92)"><path fill="#000000" d="M 179.363281 197.882812 C 178.964844 198.507812 178.664062 199.179688 178.464844 199.878906 C 171.726562 199.527344 165.007812 199.1875 158.320312 198.851562 C 165.308594 198.519531 172.324219 198.195312 179.363281 197.882812 " fill-opacity="1" fill-rule="nonzero"/></g><g clip-path="url(#5f628bb2c0)"><path fill="#000000" d="M 194.140625 207.871094 C 193.542969 208.375 192.847656 208.808594 192.050781 209.144531 C 205.308594 208.976562 218.542969 208.785156 231.75 208.570312 C 219.238281 208.355469 206.703125 208.121094 194.140625 207.871094 " fill-opacity="1" fill-rule="nonzero"/></g><g clip-path="url(#48f3c15986)"><path fill="#000000" d="M 195.636719 206.160156 C 195.238281 206.785156 194.738281 207.363281 194.140625 207.867188 C 206.097656 207.617188 218.027344 207.34375 229.933594 207.058594 C 218.523438 206.773438 207.09375 206.472656 195.636719 206.160156 " fill-opacity="1" fill-rule="nonzero"/></g><g clip-path="url(#692c23151d)"><path fill="#000000" d="M 196.53125 204.164062 C 196.332031 204.859375 196.035156 205.535156 195.636719 206.160156 C 206.289062 205.847656 216.914062 205.519531 227.515625 205.1875 C 217.214844 204.855469 206.886719 204.511719 196.53125 204.164062 " fill-opacity="1" fill-rule="nonzero"/></g><g clip-path="url(#f3f4c80338)"><path fill="#000000" d="M 196.832031 202.019531 C 196.832031 202.742188 196.730469 203.464844 196.53125 204.160156 C 205.882812 203.8125 215.203125 203.457031 224.503906 203.101562 C 215.304688 202.742188 206.078125 202.382812 196.832031 202.019531 " fill-opacity="1" fill-rule="nonzero"/></g><g clip-path="url(#9f22644290)"><path fill="#000000" d="M 196.53125 199.878906 C 196.730469 200.578125 196.832031 201.296875 196.832031 202.019531 C 204.875 201.660156 212.894531 201.296875 220.890625 200.941406 C 212.796875 200.582031 204.675781 200.226562 196.53125 199.878906 " fill-opacity="1" fill-rule="nonzero"/></g><g clip-path="url(#4dd437c285)"><path fill="#000000" d="M 195.636719 197.882812 C 196.035156 198.507812 196.332031 199.179688 196.53125 199.878906 C 203.273438 199.527344 209.988281 199.1875 216.679688 198.851562 C 209.691406 198.519531 202.675781 198.195312 195.636719 197.882812 " fill-opacity="1" fill-rule="nonzero"/></g><g fill="#000000" fill-opacity="1"><g transform="translate(164.152557, 220.809698)"><g><path d="M 3.265625 -3.390625 L 1.984375 -3.390625 L 1.984375 0 L 1.3125 0 L 1.3125 -3.390625 L 0.046875 -3.390625 L 0.046875 -4 L 3.265625 -4 Z M 3.265625 -3.390625 "/></g></g></g><g fill="#000000" fill-opacity="1"><g transform="translate(167.889739, 220.809698)"><g><path d="M 3.0625 0 L 2.328125 -1.21875 C 2.296875 -1.207031 2.238281 -1.203125 2.15625 -1.203125 L 1.203125 -1.203125 L 1.203125 0 L 0.53125 0 L 0.53125 -4 L 2.15625 -4 C 2.664062 -4 3.0625 -3.878906 3.34375 -3.640625 C 3.625 -3.398438 3.765625 -3.066406 3.765625 -2.640625 C 3.765625 -2.316406 3.691406 -2.046875 3.546875 -1.828125 C 3.398438 -1.609375 3.195312 -1.445312 2.9375 -1.34375 L 3.828125 0 Z M 1.203125 -1.8125 L 2.15625 -1.8125 C 2.800781 -1.8125 3.125 -2.082031 3.125 -2.625 C 3.125 -3.132812 2.800781 -3.390625 2.15625 -3.390625 L 1.203125 -3.390625 Z M 1.203125 -1.8125 "/></g></g></g><g fill="#000000" fill-opacity="1"><g transform="translate(172.449788, 220.809698)"><g><path d="M 3.921875 -4 L 3.921875 -1.65625 C 3.921875 -1.132812 3.765625 -0.722656 3.453125 -0.421875 C 3.148438 -0.117188 2.726562 0.03125 2.1875 0.03125 C 1.644531 0.03125 1.21875 -0.117188 0.90625 -0.421875 C 0.601562 -0.722656 0.453125 -1.132812 0.453125 -1.65625 L 0.453125 -4 L 1.125 -4 L 1.125 -1.65625 C 1.125 -1.320312 1.21875 -1.054688 1.40625 -0.859375 C 1.601562 -0.671875 1.867188 -0.578125 2.203125 -0.578125 C 2.523438 -0.578125 2.78125 -0.671875 2.96875 -0.859375 C 3.15625 -1.054688 3.25 -1.320312 3.25 -1.65625 L 3.25 -4 Z M 3.921875 -4 "/></g></g></g><g fill="#000000" fill-opacity="1"><g transform="translate(177.244126, 220.809698)"><g><path d="M 2.296875 -4.015625 C 2.578125 -4.015625 2.851562 -3.957031 3.125 -3.84375 C 3.394531 -3.738281 3.625 -3.59375 3.8125 -3.40625 L 3.421875 -2.90625 C 3.273438 -3.0625 3.101562 -3.1875 2.90625 -3.28125 C 2.707031 -3.375 2.507812 -3.421875 2.3125 -3.421875 C 1.90625 -3.421875 1.5625 -3.285156 1.28125 -3.015625 C 1.007812 -2.742188 0.875 -2.410156 0.875 -2.015625 C 0.875 -1.617188 1.007812 -1.28125 1.28125 -1 C 1.5625 -0.726562 1.90625 -0.59375 2.3125 -0.59375 C 2.726562 -0.59375 3.097656 -0.753906 3.421875 -1.078125 L 3.828125 -0.625 C 3.617188 -0.425781 3.375 -0.265625 3.09375 -0.140625 C 2.820312 -0.0234375 2.550781 0.03125 2.28125 0.03125 C 1.6875 0.03125 1.1875 -0.160156 0.78125 -0.546875 C 0.382812 -0.941406 0.1875 -1.425781 0.1875 -2 C 0.1875 -2.570312 0.390625 -3.050781 0.796875 -3.4375 C 1.203125 -3.820312 1.703125 -4.015625 2.296875 -4.015625 Z M 2.296875 -4.015625 "/></g></g></g><g fill="#000000" fill-opacity="1"><g transform="translate(181.655604, 220.809698)"><g><path d="M 3.203125 0 L 1.875 -1.765625 L 1.203125 -1.015625 L 1.203125 0 L 0.53125 0 L 0.53125 -4 L 1.203125 -4 L 1.203125 -1.9375 L 3.109375 -4 L 3.90625 -4 L 2.359375 -2.296875 L 4.015625 0 Z M 3.203125 0 "/></g></g></g><g fill="#000000" fill-opacity="1"><g transform="translate(186.187084, 220.809698)"><g><path d="M 1.203125 0 L 0.53125 0 L 0.53125 -4 L 1.203125 -4 Z M 1.203125 0 "/></g></g></g><g fill="#000000" fill-opacity="1"><g transform="translate(188.341392, 220.809698)"><g><path d="M 4 0 L 3.328125 0 L 1.203125 -2.875 L 1.203125 0 L 0.53125 0 L 0.53125 -4 L 1.1875 -4 L 3.328125 -1.125 L 3.328125 -4 L 4 -4 Z M 4 0 "/></g></g></g><g fill="#000000" fill-opacity="1"><g transform="translate(193.295738, 220.809698)"><g><path d="M 3.265625 -1.96875 L 3.859375 -1.96875 L 3.859375 -0.484375 C 3.648438 -0.328125 3.40625 -0.203125 3.125 -0.109375 C 2.84375 -0.015625 2.566406 0.03125 2.296875 0.03125 C 1.703125 0.03125 1.203125 -0.160156 0.796875 -0.546875 C 0.390625 -0.941406 0.1875 -1.425781 0.1875 -2 C 0.1875 -2.570312 0.390625 -3.050781 0.796875 -3.4375 C 1.210938 -3.820312 1.726562 -4.015625 2.34375 -4.015625 C 2.625 -4.015625 2.898438 -3.960938 3.171875 -3.859375 C 3.441406 -3.765625 3.675781 -3.628906 3.875 -3.453125 L 3.5 -2.96875 C 3.164062 -3.269531 2.78125 -3.421875 2.34375 -3.421875 C 1.9375 -3.421875 1.585938 -3.28125 1.296875 -3 C 1.015625 -2.726562 0.875 -2.394531 0.875 -2 C 0.875 -1.601562 1.015625 -1.265625 1.296875 -0.984375 C 1.585938 -0.710938 1.9375 -0.578125 2.34375 -0.578125 C 2.65625 -0.578125 2.960938 -0.671875 3.265625 -0.859375 Z M 3.265625 -1.96875 "/></g></g></g><g fill="#000000" fill-opacity="1"><g transform="translate(198.004366, 220.809698)"><g/></g></g><g fill="#000000" fill-opacity="1"><g transform="translate(199.907244, 220.809698)"><g><path d="M 1.203125 -0.609375 L 2.9375 -0.609375 L 2.9375 0 L 0.53125 0 L 0.53125 -4 L 1.203125 -4 Z M 1.203125 -0.609375 "/></g></g></g><g fill="#000000" fill-opacity="1"><g transform="translate(203.387286, 220.809698)"><g><path d="M 1.203125 -0.609375 L 2.9375 -0.609375 L 2.9375 0 L 0.53125 0 L 0.53125 -4 L 1.203125 -4 Z M 1.203125 -0.609375 "/></g></g></g><g fill="#000000" fill-opacity="1"><g transform="translate(206.867328, 220.809698)"><g><path d="M 2.296875 -4.015625 C 2.578125 -4.015625 2.851562 -3.957031 3.125 -3.84375 C 3.394531 -3.738281 3.625 -3.59375 3.8125 -3.40625 L 3.421875 -2.90625 C 3.273438 -3.0625 3.101562 -3.1875 2.90625 -3.28125 C 2.707031 -3.375 2.507812 -3.421875 2.3125 -3.421875 C 1.90625 -3.421875 1.5625 -3.285156 1.28125 -3.015625 C 1.007812 -2.742188 0.875 -2.410156 0.875 -2.015625 C 0.875 -1.617188 1.007812 -1.28125 1.28125 -1 C 1.5625 -0.726562 1.90625 -0.59375 2.3125 -0.59375 C 2.726562 -0.59375 3.097656 -0.753906 3.421875 -1.078125 L 3.828125 -0.625 C 3.617188 -0.425781 3.375 -0.265625 3.09375 -0.140625 C 2.820312 -0.0234375 2.550781 0.03125 2.28125 0.03125 C 1.6875 0.03125 1.1875 -0.160156 0.78125 -0.546875 C 0.382812 -0.941406 0.1875 -1.425781 0.1875 -2 C 0.1875 -2.570312 0.390625 -3.050781 0.796875 -3.4375 C 1.203125 -3.820312 1.703125 -4.015625 2.296875 -4.015625 Z M 2.296875 -4.015625 "/></g></g></g></svg>